<mxfile host="app.diagrams.net" modified="2023-12-18T11:29:42.002Z" agent="Mozilla/5.0 (Windows NT 10.0; Win64; x64) AppleWebKit/537.36 (KHTML, like Gecko) Chrome/120.0.0.0 Safari/537.36" etag="K3YbObVQ5LfbrGAoNjPh" version="22.1.11" type="github">
  <diagram name="Страница — 1" id="oZnSSF_PE2cygU99dXs-">
    <mxGraphModel dx="1430" dy="786" grid="1" gridSize="10" guides="1" tooltips="1" connect="1" arrows="1" fold="1" page="1" pageScale="1" pageWidth="827" pageHeight="1169" math="0" shadow="0">
      <root>
        <mxCell id="0" />
        <mxCell id="1" parent="0" />
        <mxCell id="ZmDcYb9TTakc3vNmTTzt-1" value="Возникла ошибка в базе данных" style="shape=hexagon;perimeter=hexagonPerimeter2;whiteSpace=wrap;html=1;fixedSize=1;fillColor=#FF66FF;strokeColor=#000000;" vertex="1" parent="1">
          <mxGeometry x="340" y="40" width="120" height="80" as="geometry" />
        </mxCell>
        <mxCell id="ZmDcYb9TTakc3vNmTTzt-2" value="Определение характера ошибки" style="rounded=1;whiteSpace=wrap;html=1;fillColor=#99FF99;" vertex="1" parent="1">
          <mxGeometry x="340" y="200" width="120" height="80" as="geometry" />
        </mxCell>
        <mxCell id="ZmDcYb9TTakc3vNmTTzt-3" value="" style="endArrow=classic;html=1;rounded=0;exitX=0.5;exitY=1;exitDx=0;exitDy=0;entryX=0.5;entryY=0;entryDx=0;entryDy=0;" edge="1" parent="1" source="ZmDcYb9TTakc3vNmTTzt-1" target="ZmDcYb9TTakc3vNmTTzt-2">
          <mxGeometry width="50" height="50" relative="1" as="geometry">
            <mxPoint x="420" y="270" as="sourcePoint" />
            <mxPoint x="470" y="220" as="targetPoint" />
          </mxGeometry>
        </mxCell>
        <mxCell id="ZmDcYb9TTakc3vNmTTzt-4" value="Ошибка возникла в описании товара" style="shape=hexagon;perimeter=hexagonPerimeter2;whiteSpace=wrap;html=1;fixedSize=1;fillColor=#FF66FF;strokeColor=#000000;" vertex="1" parent="1">
          <mxGeometry x="120" y="320" width="120" height="80" as="geometry" />
        </mxCell>
        <mxCell id="ZmDcYb9TTakc3vNmTTzt-5" value="Ошибка возникла в количестве товара" style="shape=hexagon;perimeter=hexagonPerimeter2;whiteSpace=wrap;html=1;fixedSize=1;fillColor=#FF66FF;strokeColor=#000000;" vertex="1" parent="1">
          <mxGeometry x="560" y="320" width="120" height="80" as="geometry" />
        </mxCell>
        <mxCell id="ZmDcYb9TTakc3vNmTTzt-6" value="" style="endArrow=classic;html=1;rounded=0;exitX=1;exitY=0.5;exitDx=0;exitDy=0;entryX=0.5;entryY=0;entryDx=0;entryDy=0;" edge="1" parent="1" source="ZmDcYb9TTakc3vNmTTzt-2" target="ZmDcYb9TTakc3vNmTTzt-5">
          <mxGeometry width="50" height="50" relative="1" as="geometry">
            <mxPoint x="410" y="130" as="sourcePoint" />
            <mxPoint x="410" y="210" as="targetPoint" />
            <Array as="points">
              <mxPoint x="620" y="240" />
            </Array>
          </mxGeometry>
        </mxCell>
        <mxCell id="ZmDcYb9TTakc3vNmTTzt-7" value="" style="endArrow=classic;html=1;rounded=0;exitX=0;exitY=0.5;exitDx=0;exitDy=0;entryX=0.5;entryY=0;entryDx=0;entryDy=0;" edge="1" parent="1" source="ZmDcYb9TTakc3vNmTTzt-2" target="ZmDcYb9TTakc3vNmTTzt-4">
          <mxGeometry width="50" height="50" relative="1" as="geometry">
            <mxPoint x="470" y="250" as="sourcePoint" />
            <mxPoint x="630" y="330" as="targetPoint" />
            <Array as="points">
              <mxPoint x="180" y="240" />
            </Array>
          </mxGeometry>
        </mxCell>
        <mxCell id="ZmDcYb9TTakc3vNmTTzt-8" value="Исправление описания товара" style="rounded=1;whiteSpace=wrap;html=1;fillColor=#99FF99;" vertex="1" parent="1">
          <mxGeometry x="120" y="480" width="120" height="80" as="geometry" />
        </mxCell>
        <mxCell id="ZmDcYb9TTakc3vNmTTzt-9" value="" style="endArrow=classic;html=1;rounded=0;exitX=0.5;exitY=1;exitDx=0;exitDy=0;entryX=0.5;entryY=0;entryDx=0;entryDy=0;" edge="1" parent="1" source="ZmDcYb9TTakc3vNmTTzt-4" target="ZmDcYb9TTakc3vNmTTzt-8">
          <mxGeometry width="50" height="50" relative="1" as="geometry">
            <mxPoint x="420" y="410" as="sourcePoint" />
            <mxPoint x="470" y="360" as="targetPoint" />
          </mxGeometry>
        </mxCell>
        <mxCell id="ZmDcYb9TTakc3vNmTTzt-10" value="Проверка истории занесения поставок" style="rounded=1;whiteSpace=wrap;html=1;fillColor=#99FF99;" vertex="1" parent="1">
          <mxGeometry x="560" y="480" width="120" height="80" as="geometry" />
        </mxCell>
        <mxCell id="ZmDcYb9TTakc3vNmTTzt-11" value="" style="endArrow=classic;html=1;rounded=0;exitX=0.5;exitY=1;exitDx=0;exitDy=0;entryX=0.5;entryY=0;entryDx=0;entryDy=0;" edge="1" parent="1" source="ZmDcYb9TTakc3vNmTTzt-5" target="ZmDcYb9TTakc3vNmTTzt-10">
          <mxGeometry width="50" height="50" relative="1" as="geometry">
            <mxPoint x="399.65999999999997" y="420" as="sourcePoint" />
            <mxPoint x="399.65999999999997" y="500" as="targetPoint" />
          </mxGeometry>
        </mxCell>
        <mxCell id="ZmDcYb9TTakc3vNmTTzt-13" value="Ошибка в занесении поставок найдена" style="shape=hexagon;perimeter=hexagonPerimeter2;whiteSpace=wrap;html=1;fixedSize=1;fillColor=#FF66FF;strokeColor=#000000;" vertex="1" parent="1">
          <mxGeometry x="560" y="640" width="120" height="80" as="geometry" />
        </mxCell>
        <mxCell id="ZmDcYb9TTakc3vNmTTzt-14" value="" style="endArrow=classic;html=1;rounded=0;exitX=0.5;exitY=1;exitDx=0;exitDy=0;entryX=0.5;entryY=0;entryDx=0;entryDy=0;" edge="1" parent="1">
          <mxGeometry width="50" height="50" relative="1" as="geometry">
            <mxPoint x="619.66" y="560" as="sourcePoint" />
            <mxPoint x="619.66" y="640" as="targetPoint" />
          </mxGeometry>
        </mxCell>
        <mxCell id="ZmDcYb9TTakc3vNmTTzt-15" value="Исправление количества товара" style="rounded=1;whiteSpace=wrap;html=1;fillColor=#99FF99;" vertex="1" parent="1">
          <mxGeometry x="560" y="800" width="120" height="80" as="geometry" />
        </mxCell>
        <mxCell id="ZmDcYb9TTakc3vNmTTzt-17" value="" style="endArrow=classic;html=1;rounded=0;exitX=0.5;exitY=1;exitDx=0;exitDy=0;entryX=0.5;entryY=0;entryDx=0;entryDy=0;" edge="1" parent="1">
          <mxGeometry width="50" height="50" relative="1" as="geometry">
            <mxPoint x="619.66" y="720" as="sourcePoint" />
            <mxPoint x="619.66" y="800" as="targetPoint" />
          </mxGeometry>
        </mxCell>
      </root>
    </mxGraphModel>
  </diagram>
</mxfile>
